<?xml version="1.0" encoding="utf-8"?>
<!-- Generator: Adobe Illustrator 24.0.1, SVG Export Plug-In . SVG Version: 6.00 Build 0)  -->
<svg version="1.1" id="Layer_1" xmlns="http://www.w3.org/2000/svg" xmlns:xlink="http://www.w3.org/1999/xlink" x="0px" y="0px"
	 viewBox="0 0 439.4 439.4" style="enable-background:new 0 0 439.4 439.4;" xml:space="preserve">
<style type="text/css">
	.st0{fill:none;stroke:#FF0000;stroke-width:0.5669;stroke-miterlimit:11.3386;}
	.st1{enable-background:new    ;}
	.st2{fill:#0000FF;}
</style>
<g transform="scale(1,1)">
	<path class="st0" d="M0.4,272.2l0.5-2l0.7-2l0.9-1.9l1.1-1.8l1.2-1.7l1.4-1.5l1.5-1.4l1.7-1.2l1.8-1.1l1.9-0.9l2-0.7l2-0.5l2.1-0.3
		l2.1-0.1l2.1,0.1l2.1,0.3l2,0.5l2,0.7l1.9,0.9l1.8,1.1l1.7,1.2l1.5,1.4l1.4,1.5l1.2,1.7l1.1,1.8l0.9,1.9l0.7,2l0.5,2l0.3,2.1
		l0.1,2.1v141.7l-0.1,2.1l-0.3,2.1l-0.5,2l-0.7,2l-0.9,1.9l-1.1,1.8l-1.2,1.7l-1.4,1.5l-1.5,1.4l-1.7,1.2l-1.8,1.1l-1.9,0.9l-2,0.7
		l-2,0.5l-2.1,0.3l-2.1,0.1l-2.1-0.1l-2.1-0.3l-2-0.5l-2-0.7l-1.9-0.9l-1.8-1.1l-1.7-1.2l-1.5-1.4l-1.4-1.5l-1.2-1.7l-1.1-1.8
		l-0.9-1.9l-0.7-2l-0.5-2l-0.3-2.1L0,418.1V276.4l0.1-2.1L0.4,272.2z M20.7,415.3l-0.3,0.1l-0.3,0.1l-0.3,0.1l-0.2,0.1l-0.2,0.2
		l-0.2,0.2l-0.2,0.2l-0.2,0.2l-0.1,0.2l-0.1,0.3l-0.1,0.3l-0.1,0.3l0,0.3l0,0.3l0,0.3l0,0.3l0.1,0.3l0.1,0.3l0.1,0.3l0.1,0.2
		l0.2,0.2l0.2,0.2l0.2,0.2l0.2,0.2l0.2,0.1l0.3,0.1l0.3,0.1l0.3,0.1l0.3,0l0.3,0l0.3,0l0.3,0l0.3-0.1l0.3-0.1l0.3-0.1l0.2-0.1
		l0.2-0.2l0.2-0.2l0.2-0.2l0.2-0.2l0.1-0.2l0.1-0.3l0.1-0.3l0.1-0.3l0-0.3l0-0.3l0-0.3l0-0.3l-0.1-0.3l-0.1-0.3l-0.1-0.3l-0.1-0.2
		l-0.2-0.2l-0.2-0.2l-0.2-0.2l-0.2-0.2l-0.2-0.1l-0.3-0.1l-0.3-0.1l-0.3-0.1l-0.3,0l-0.3,0l-0.3,0L20.7,415.3z M21,273.6l-0.3,0
		l-0.3,0.1l-0.3,0.1l-0.3,0.1l-0.2,0.1l-0.2,0.2l-0.2,0.2l-0.2,0.2l-0.2,0.2l-0.1,0.2l-0.1,0.3l-0.1,0.3l-0.1,0.3l0,0.3l0,0.3l0,0.3
		l0,0.3l0.1,0.3l0.1,0.3l0.1,0.3l0.1,0.2l0.2,0.2l0.2,0.2l0.2,0.2l0.2,0.2l0.2,0.1l0.3,0.1l0.3,0.1l0.3,0.1l0.3,0l0.3,0l0.3,0l0.3,0
		l0.3-0.1l0.3-0.1l0.3-0.1l0.2-0.1l0.2-0.2l0.2-0.2l0.2-0.2l0.2-0.2l0.1-0.2l0.1-0.3l0.1-0.3l0.1-0.3l0-0.3l0-0.3l0-0.3l0-0.3
		l-0.1-0.3l-0.1-0.3l-0.1-0.3l-0.1-0.2l-0.2-0.2l-0.2-0.2l-0.2-0.2l-0.2-0.2l-0.2-0.1l-0.3-0.1l-0.3-0.1l-0.3-0.1l-0.3,0l-0.3,0
		L21,273.6z"/>
	<g class="st1">
		<path class="st2" d="M28.3,425.2l3.9-10.1h1.4l4.2,10.1h-1.5l-1.2-3.1h-4.2l-1.1,3.1H28.3z M31.3,421h3.4l-1.1-2.8
			c-0.3-0.9-0.6-1.6-0.7-2.1c-0.1,0.7-0.3,1.3-0.5,1.9L31.3,421z"/>
	</g>
	<g class="st1">
		<path class="st2" d="M29.4,283.5v-10.1h3.8c0.8,0,1.4,0.1,1.9,0.3s0.8,0.5,1.1,0.9c0.3,0.4,0.4,0.9,0.4,1.3c0,0.4-0.1,0.8-0.4,1.2
			c-0.2,0.4-0.6,0.7-1.1,0.9c0.6,0.2,1.1,0.5,1.4,0.9c0.3,0.4,0.5,0.9,0.5,1.5c0,0.5-0.1,0.9-0.3,1.3c-0.2,0.4-0.4,0.7-0.7,0.9
			c-0.3,0.2-0.7,0.4-1.1,0.5s-1,0.2-1.6,0.2H29.4z M30.7,277.6h2.2c0.6,0,1,0,1.3-0.1c0.3-0.1,0.6-0.3,0.8-0.5
			c0.2-0.2,0.3-0.5,0.3-0.9c0-0.3-0.1-0.6-0.2-0.9c-0.2-0.3-0.4-0.4-0.7-0.5c-0.3-0.1-0.8-0.1-1.5-0.1h-2V277.6z M30.7,282.3h2.5
			c0.4,0,0.7,0,0.9,0c0.3-0.1,0.6-0.1,0.8-0.3s0.4-0.3,0.5-0.6c0.1-0.2,0.2-0.5,0.2-0.9c0-0.4-0.1-0.7-0.3-1s-0.5-0.5-0.8-0.6
			s-0.8-0.2-1.5-0.2h-2.3V282.3z"/>
	</g>
	<path class="st0" d="M57.1,272.2l0.5-2l0.7-2l0.9-1.9l1.1-1.8l1.2-1.7l1.4-1.5l1.5-1.4l1.7-1.2l1.8-1.1l1.9-0.9l2-0.7l2-0.5
		l2.1-0.3l2.1-0.1l2.1,0.1l2.1,0.3l2,0.5l2,0.7l1.9,0.9l1.8,1.1l1.7,1.2l1.5,1.4l1.4,1.5l1.2,1.7l1.1,1.8l0.9,1.9l0.7,2l0.5,2
		l0.3,2.1l0.1,2.1v141.7l-0.1,2.1l-0.3,2.1l-0.5,2l-0.7,2l-0.9,1.9l-1.1,1.8l-1.2,1.7l-1.4,1.5l-1.5,1.4l-1.7,1.2l-1.8,1.1l-1.9,0.9
		l-2,0.7l-2,0.5l-2.1,0.3l-2.1,0.1l-2.1-0.1l-2.1-0.3l-2-0.5l-2-0.7l-1.9-0.9l-1.8-1.1l-1.7-1.2l-1.5-1.4l-1.4-1.5l-1.2-1.7
		l-1.1-1.8l-0.9-1.9l-0.7-2l-0.5-2l-0.3-2.1l-0.1-2.1V276.4l0.1-2.1L57.1,272.2z M77.4,415.3l-0.3,0.1l-0.3,0.1l-0.3,0.1l-0.2,0.1
		l-0.2,0.2l-0.2,0.2l-0.2,0.2l-0.2,0.2l-0.1,0.2l-0.1,0.3l-0.1,0.3l-0.1,0.3l0,0.3l0,0.3l0,0.3l0,0.3l0.1,0.3l0.1,0.3l0.1,0.3
		l0.1,0.2l0.2,0.2l0.2,0.2l0.2,0.2l0.2,0.2l0.2,0.1l0.3,0.1l0.3,0.1l0.3,0.1l0.3,0l0.3,0l0.3,0l0.3,0l0.3-0.1l0.3-0.1l0.3-0.1
		l0.2-0.1l0.2-0.2l0.2-0.2l0.2-0.2l0.2-0.2l0.1-0.2l0.1-0.3l0.1-0.3l0.1-0.3l0-0.3l0-0.3l0-0.3l0-0.3l-0.1-0.3l-0.1-0.3l-0.1-0.3
		l-0.1-0.2l-0.2-0.2l-0.2-0.2l-0.2-0.2l-0.2-0.2l-0.2-0.1l-0.3-0.1l-0.3-0.1l-0.3-0.1l-0.3,0l-0.3,0l-0.3,0L77.4,415.3z M77.7,273.6
		l-0.3,0l-0.3,0.1l-0.3,0.1l-0.3,0.1l-0.2,0.1l-0.2,0.2l-0.2,0.2l-0.2,0.2l-0.2,0.2l-0.1,0.2l-0.1,0.3l-0.1,0.3l-0.1,0.3l0,0.3
		l0,0.3l0,0.3l0,0.3l0.1,0.3l0.1,0.3l0.1,0.3l0.1,0.2l0.2,0.2l0.2,0.2l0.2,0.2l0.2,0.2l0.2,0.1l0.3,0.1l0.3,0.1l0.3,0.1l0.3,0l0.3,0
		l0.3,0l0.3,0l0.3-0.1L79,279l0.3-0.1l0.2-0.1l0.2-0.2l0.2-0.2l0.2-0.2l0.2-0.2l0.1-0.2l0.1-0.3l0.1-0.3l0.1-0.3l0-0.3l0-0.3l0-0.3
		l0-0.3l-0.1-0.3l-0.1-0.3l-0.1-0.3l-0.1-0.2l-0.2-0.2l-0.2-0.2l-0.2-0.2l-0.2-0.2l-0.2-0.1l-0.3-0.1l-0.3-0.1l-0.3-0.1l-0.3,0
		l-0.3,0L77.7,273.6z"/>
	<g class="st1">
		<path class="st2" d="M86.1,425.2v-10.1h3.8c0.8,0,1.4,0.1,1.9,0.3s0.8,0.5,1.1,0.9c0.3,0.4,0.4,0.9,0.4,1.3c0,0.4-0.1,0.8-0.4,1.2
			c-0.2,0.4-0.6,0.7-1.1,0.9c0.6,0.2,1.1,0.5,1.4,0.9c0.3,0.4,0.5,0.9,0.5,1.5c0,0.5-0.1,0.9-0.3,1.3c-0.2,0.4-0.4,0.7-0.7,0.9
			c-0.3,0.2-0.7,0.4-1.1,0.5s-1,0.2-1.6,0.2H86.1z M87.4,419.3h2.2c0.6,0,1,0,1.3-0.1c0.3-0.1,0.6-0.3,0.8-0.5
			c0.2-0.2,0.3-0.5,0.3-0.9c0-0.3-0.1-0.6-0.2-0.9c-0.2-0.3-0.4-0.4-0.7-0.5c-0.3-0.1-0.8-0.1-1.5-0.1h-2V419.3z M87.4,424h2.5
			c0.4,0,0.7,0,0.9,0c0.3-0.1,0.6-0.1,0.8-0.3s0.4-0.3,0.5-0.6c0.1-0.2,0.2-0.5,0.2-0.9c0-0.4-0.1-0.7-0.3-1s-0.5-0.5-0.8-0.6
			s-0.8-0.2-1.5-0.2h-2.3V424z"/>
	</g>
	<g class="st1">
		<path class="st2" d="M86.1,283.5v-10.1h3.5c0.8,0,1.4,0,1.8,0.1c0.6,0.1,1.1,0.4,1.5,0.7c0.5,0.5,0.9,1,1.2,1.7
			c0.3,0.7,0.4,1.5,0.4,2.4c0,0.8-0.1,1.5-0.3,2c-0.2,0.6-0.4,1.1-0.7,1.5c-0.3,0.4-0.6,0.7-0.9,0.9s-0.7,0.4-1.2,0.5
			c-0.5,0.1-1,0.2-1.6,0.2H86.1z M87.5,282.3h2.2c0.7,0,1.2-0.1,1.6-0.2c0.4-0.1,0.7-0.3,0.9-0.5c0.3-0.3,0.6-0.7,0.7-1.3
			c0.2-0.5,0.3-1.2,0.3-2c0-1.1-0.2-1.9-0.5-2.4c-0.3-0.6-0.8-1-1.3-1.1c-0.4-0.1-0.9-0.2-1.7-0.2h-2.1V282.3z"/>
	</g>
	<path class="st0" d="M113.8,272.2l0.5-2l0.7-2l0.9-1.9l1.1-1.8l1.2-1.7l1.4-1.5l1.5-1.4l1.7-1.2l1.8-1.1l1.9-0.9l2-0.7l2-0.5
		l2.1-0.3l2.1-0.1l2.1,0.1l2.1,0.3l2,0.5l2,0.7l1.9,0.9l1.8,1.1l1.7,1.2l1.5,1.4l1.4,1.5l1.2,1.7l1.1,1.8l0.9,1.9l0.7,2l0.5,2
		l0.3,2.1l0.1,2.1v141.7l-0.1,2.1l-0.3,2.1l-0.5,2l-0.7,2l-0.9,1.9l-1.1,1.8l-1.2,1.7l-1.4,1.5l-1.5,1.4l-1.7,1.2l-1.8,1.1l-1.9,0.9
		l-2,0.7l-2,0.5l-2.1,0.3l-2.1,0.1l-2.1-0.1l-2.1-0.3l-2-0.5l-2-0.7l-1.9-0.9l-1.8-1.1l-1.7-1.2l-1.5-1.4l-1.4-1.5l-1.2-1.7
		l-1.1-1.8l-0.9-1.9l-0.7-2l-0.5-2l-0.3-2.1l-0.1-2.1V276.4l0.1-2.1L113.8,272.2z M136.2,415.7l-0.2-0.1l-0.3-0.1l-0.3-0.1l-0.3-0.1
		l-0.3,0l-0.3,0l-0.3,0l-0.3,0l-0.3,0.1l-0.3,0.1l-0.3,0.1l-0.2,0.1l-0.2,0.2l-0.2,0.2l-0.2,0.2l-0.2,0.2l-0.1,0.2L132,417l-0.1,0.3
		l-0.1,0.3l0,0.3l0,0.3l0,0.3l0,0.3l0.1,0.3l0.1,0.3l0.1,0.3l0.1,0.2l0.2,0.2l0.2,0.2l0.2,0.2l0.2,0.2l0.2,0.1l0.3,0.1l0.3,0.1
		l0.3,0.1l0.3,0l0.3,0l0.3,0l0.3,0l0.3-0.1l0.3-0.1l0.3-0.1l0.2-0.1l0.2-0.2l0.2-0.2l0.2-0.2l0.2-0.2l0.1-0.2l0.1-0.3l0.1-0.3
		l0.1-0.3l0-0.3l0-0.3l0-0.3l0-0.3l-0.1-0.3l-0.1-0.3l-0.1-0.3l-0.1-0.2l-0.2-0.2l-0.2-0.2l-0.2-0.2L136.2,415.7z M136.4,274.2
		l-0.2-0.2l-0.2-0.1l-0.3-0.1l-0.3-0.1l-0.3-0.1l-0.3,0l-0.3,0l-0.3,0l-0.3,0l-0.3,0.1l-0.3,0.1l-0.3,0.1l-0.2,0.1l-0.2,0.2
		l-0.2,0.2l-0.2,0.2l-0.2,0.2l-0.1,0.2l-0.1,0.3l-0.1,0.3l-0.1,0.3l0,0.3l0,0.3l0,0.3l0,0.3l0.1,0.3l0.1,0.3l0.1,0.3l0.1,0.2
		l0.2,0.2l0.2,0.2l0.2,0.2l0.2,0.2l0.2,0.1l0.3,0.1l0.3,0.1l0.3,0.1l0.3,0l0.3,0l0.3,0l0.3,0l0.3-0.1l0.3-0.1l0.3-0.1l0.2-0.1
		l0.2-0.2l0.2-0.2l0.2-0.2l0.2-0.2l0.1-0.2l0.1-0.3l0.1-0.3l0.1-0.3l0-0.3l0-0.3l0-0.3l0-0.3l-0.1-0.3l-0.1-0.3l-0.1-0.3l-0.1-0.2
		l-0.2-0.2l-0.2-0.2L136.4,274.2z"/>
	<g class="st1">
		<path class="st2" d="M142.8,425.2v-10.1h3.5c0.8,0,1.4,0,1.8,0.1c0.6,0.1,1.1,0.4,1.5,0.7c0.5,0.5,0.9,1,1.2,1.7
			c0.3,0.7,0.4,1.5,0.4,2.4c0,0.8-0.1,1.5-0.3,2c-0.2,0.6-0.4,1.1-0.7,1.5c-0.3,0.4-0.6,0.7-0.9,0.9s-0.7,0.4-1.2,0.5
			c-0.5,0.1-1,0.2-1.6,0.2H142.8z M144.2,424h2.2c0.7,0,1.2-0.1,1.6-0.2c0.4-0.1,0.7-0.3,0.9-0.5c0.3-0.3,0.6-0.7,0.7-1.3
			c0.2-0.5,0.3-1.2,0.3-2c0-1.1-0.2-1.9-0.5-2.4c-0.3-0.6-0.8-1-1.3-1.1c-0.4-0.1-0.9-0.2-1.7-0.2h-2.1V424z"/>
	</g>
	<g class="st1">
		<path class="st2" d="M142.9,283.5v-10.1h6.8v1.2h-5.5v3.1h4.8v1.2h-4.8v4.6H142.9z"/>
	</g>
	<path class="st0" d="M170.5,272.2l0.5-2l0.7-2l0.9-1.9l1.1-1.8l1.2-1.7l1.4-1.5l1.5-1.4l1.7-1.2l1.8-1.1l1.9-0.9l2-0.7l2-0.5
		l2.1-0.3l2.1-0.1l2.1,0.1l2.1,0.3l2,0.5l2,0.7l1.9,0.9l1.8,1.1l1.7,1.2l1.5,1.4l1.4,1.5l1.2,1.7l1.1,1.8l0.9,1.9l0.7,2l0.5,2
		l0.3,2.1l0.1,2.1v141.7l-0.1,2.1l-0.3,2.1l-0.5,2l-0.7,2l-0.9,1.9l-1.1,1.8l-1.2,1.7l-1.4,1.5l-1.5,1.4l-1.7,1.2l-1.8,1.1l-1.9,0.9
		l-2,0.7l-2,0.5l-2.1,0.3l-2.1,0.1l-2.1-0.1l-2.1-0.3l-2-0.5l-2-0.7l-1.9-0.9l-1.8-1.1l-1.7-1.2l-1.5-1.4l-1.4-1.5l-1.2-1.7
		l-1.1-1.8l-0.9-1.9l-0.7-2l-0.5-2l-0.3-2.1l-0.1-2.1V276.4l0.1-2.1L170.5,272.2z M189,416.5l-0.1,0.2l-0.1,0.3l-0.1,0.3l-0.1,0.3
		l0,0.3l0,0.3l0,0.3l0,0.3l0.1,0.3l0.1,0.3l0.1,0.3l0.1,0.2l0.2,0.2l0.2,0.2l0.2,0.2l0.2,0.2l0.2,0.1l0.3,0.1l0.3,0.1l0.3,0.1l0.3,0
		l0.3,0l0.3,0l0.3,0l0.3-0.1l0.3-0.1l0.3-0.1l0.2-0.1l0.2-0.2l0.2-0.2l0.2-0.2l0.2-0.2l0.1-0.2l0.1-0.3l0.1-0.3l0.1-0.3l0-0.3l0-0.3
		l0-0.3l0-0.3l-0.1-0.3L194,417l-0.1-0.3l-0.1-0.2l-0.2-0.2l-0.2-0.2l-0.2-0.2l-0.2-0.2l-0.2-0.1l-0.3-0.1l-0.3-0.1l-0.3-0.1l-0.3,0
		l-0.3,0l-0.3,0l-0.3,0l-0.3,0.1l-0.3,0.1l-0.3,0.1l-0.2,0.1l-0.2,0.2l-0.2,0.2l-0.2,0.2L189,416.5z M189.2,274.6l-0.2,0.2l-0.1,0.2
		l-0.1,0.3l-0.1,0.3l-0.1,0.3l0,0.3l0,0.3l0,0.3l0,0.3l0.1,0.3l0.1,0.3l0.1,0.3l0.1,0.2l0.2,0.2l0.2,0.2l0.2,0.2l0.2,0.2l0.2,0.1
		l0.3,0.1l0.3,0.1l0.3,0.1l0.3,0l0.3,0l0.3,0l0.3,0l0.3-0.1l0.3-0.1l0.3-0.1l0.2-0.1l0.2-0.2l0.2-0.2l0.2-0.2l0.2-0.2l0.1-0.2
		l0.1-0.3l0.1-0.3l0.1-0.3l0-0.3l0-0.3l0-0.3l0-0.3l-0.1-0.3l-0.1-0.3l-0.1-0.3l-0.1-0.2l-0.2-0.2l-0.2-0.2l-0.2-0.2l-0.2-0.2
		l-0.2-0.1l-0.3-0.1l-0.3-0.1l-0.3-0.1l-0.3,0l-0.3,0l-0.3,0l-0.3,0l-0.3,0.1l-0.3,0.1l-0.3,0.1l-0.2,0.1l-0.2,0.2l-0.2,0.2
		L189.2,274.6z"/>
	<g class="st1">
		<path class="st2" d="M199.6,425.2v-10.1h6.8v1.2h-5.5v3.1h4.8v1.2h-4.8v4.6H199.6z"/>
	</g>
	<g class="st1">
		<path class="st2" d="M199.6,283.5v-10.1h1.3v4.2h5.3v-4.2h1.3v10.1h-1.3v-4.8h-5.3v4.8H199.6z"/>
	</g>
	<path class="st0" d="M268.9,422.3l-0.5,2l-0.7,2l-0.9,1.9l-1.1,1.8l-1.2,1.7l-1.4,1.5l-1.5,1.4l-1.7,1.2l-1.8,1.1l-1.9,0.9l-2,0.7
		l-2,0.5l-2.1,0.3l-2.1,0.1l-2.1-0.1l-2.1-0.3l-2-0.5l-2-0.7l-1.9-0.9l-1.8-1.1l-1.7-1.2l-1.5-1.4l-1.4-1.5l-1.2-1.7l-1.1-1.8
		l-0.9-1.9l-0.7-2l-0.5-2l-0.3-2.1l-0.1-2.1V276.4l0.1-2.1l0.3-2.1l0.5-2l0.7-2l0.9-1.9l1.1-1.8l1.2-1.7l1.4-1.5l1.5-1.4l1.7-1.2
		l1.8-1.1l1.9-0.9l2-0.7l2-0.5l2.1-0.3l2.1-0.1l2.1,0.1l2.1,0.3l2,0.5l2,0.7l1.9,0.9l1.8,1.1l1.7,1.2l1.5,1.4l1.4,1.5l1.2,1.7
		l1.1,1.8l0.9,1.9l0.7,2l0.5,2l0.3,2.1l0.1,2.1v141.7l-0.1,2.1L268.9,422.3z M249.6,274l-0.2-0.1l-0.3-0.1l-0.3-0.1l-0.3-0.1l-0.3,0
		l-0.3,0l-0.3,0l-0.3,0l-0.3,0.1l-0.3,0.1l-0.3,0.1l-0.2,0.1l-0.2,0.2l-0.2,0.2l-0.2,0.2l-0.2,0.2l-0.1,0.2l-0.1,0.3l-0.1,0.3
		l-0.1,0.3l0,0.3l0,0.3l0,0.3l0,0.3l0.1,0.3l0.1,0.3l0.1,0.3l0.1,0.2l0.2,0.2l0.2,0.2l0.2,0.2l0.2,0.2l0.2,0.1l0.3,0.1l0.3,0.1
		l0.3,0.1l0.3,0l0.3,0l0.3,0l0.3,0l0.3-0.1l0.3-0.1l0.3-0.1l0.2-0.1l0.2-0.2l0.2-0.2l0.2-0.2l0.2-0.2l0.1-0.2l0.1-0.3l0.1-0.3
		l0.1-0.3l0-0.3l0-0.3l0-0.3l0-0.3l-0.1-0.3l-0.1-0.3l-0.1-0.3l-0.1-0.2l-0.2-0.2l-0.2-0.2l-0.2-0.2L249.6,274z M249.8,415.9
		l-0.2-0.2l-0.2-0.1l-0.3-0.1l-0.3-0.1l-0.3-0.1l-0.3,0l-0.3,0l-0.3,0l-0.3,0l-0.3,0.1l-0.3,0.1l-0.3,0.1l-0.2,0.1l-0.2,0.2
		l-0.2,0.2l-0.2,0.2l-0.2,0.2l-0.1,0.2l-0.1,0.3l-0.1,0.3l-0.1,0.3l0,0.3l0,0.3l0,0.3l0,0.3l0.1,0.3l0.1,0.3l0.1,0.3l0.1,0.2
		l0.2,0.2l0.2,0.2l0.2,0.2l0.2,0.2l0.2,0.1l0.3,0.1l0.3,0.1l0.3,0.1l0.3,0l0.3,0l0.3,0l0.3,0l0.3-0.1l0.3-0.1l0.3-0.1l0.2-0.1
		l0.2-0.2l0.2-0.2l0.2-0.2l0.2-0.2l0.1-0.2l0.1-0.3l0.1-0.3l0.1-0.3l0-0.3l0-0.3l0-0.3l0-0.3l-0.1-0.3l-0.1-0.3l-0.1-0.3l-0.1-0.2
		l-0.2-0.2l-0.2-0.2L249.8,415.9z"/>
	<g class="st1">
		<path class="st2" d="M256.3,283.5v-10.1h1.3v4.2h5.3v-4.2h1.3v10.1h-1.3v-4.8h-5.3v4.8H256.3z"/>
	</g>
	<g class="st1">
		<path class="st2" d="M255.5,422.3l1.2-0.2c0,0.8,0.2,1.3,0.4,1.6c0.3,0.3,0.6,0.4,1.1,0.4c0.3,0,0.6-0.1,0.9-0.2s0.4-0.4,0.5-0.6
			c0.1-0.3,0.1-0.7,0.1-1.3v-7h1.3v6.9c0,0.8-0.1,1.5-0.3,2c-0.2,0.5-0.5,0.8-1,1.1c-0.4,0.2-1,0.4-1.6,0.4c-0.9,0-1.6-0.3-2-0.8
			C255.7,424.1,255.5,423.3,255.5,422.3z"/>
	</g>
	<path class="st0" d="M325.6,422.3l-0.5,2l-0.7,2l-0.9,1.9l-1.1,1.8l-1.2,1.7l-1.4,1.5l-1.5,1.4l-1.7,1.2l-1.8,1.1l-1.9,0.9l-2,0.7
		l-2,0.5l-2.1,0.3l-2.1,0.1l-2.1-0.1l-2.1-0.3l-2-0.5l-2-0.7l-1.9-0.9l-1.8-1.1l-1.7-1.2l-1.5-1.4l-1.4-1.5l-1.2-1.7l-1.1-1.8
		l-0.9-1.9l-0.7-2l-0.5-2l-0.3-2.1l-0.1-2.1V276.4l0.1-2.1l0.3-2.1l0.5-2l0.7-2l0.9-1.9l1.1-1.8l1.2-1.7l1.4-1.5l1.5-1.4l1.7-1.2
		l1.8-1.1l1.9-0.9l2-0.7l2-0.5l2.1-0.3l2.1-0.1l2.1,0.1l2.1,0.3l2,0.5l2,0.7l1.9,0.9l1.8,1.1l1.7,1.2l1.5,1.4l1.4,1.5l1.2,1.7
		l1.1,1.8l0.9,1.9l0.7,2l0.5,2l0.3,2.1l0.1,2.1v141.7l-0.1,2.1L325.6,422.3z M302.4,274.8l-0.1,0.2l-0.1,0.3l-0.1,0.3l-0.1,0.3
		l0,0.3l0,0.3l0,0.3l0,0.3l0.1,0.3l0.1,0.3l0.1,0.3l0.1,0.2l0.2,0.2l0.2,0.2l0.2,0.2l0.2,0.2l0.2,0.1l0.3,0.1l0.3,0.1l0.3,0.1l0.3,0
		l0.3,0l0.3,0l0.3,0l0.3-0.1l0.3-0.1l0.3-0.1l0.2-0.1l0.2-0.2l0.2-0.2l0.2-0.2l0.2-0.2l0.1-0.2l0.1-0.3l0.1-0.3l0.1-0.3l0-0.3l0-0.3
		l0-0.3l0-0.3l-0.1-0.3l-0.1-0.3l-0.1-0.3l-0.1-0.2l-0.2-0.2l-0.2-0.2l-0.2-0.2l-0.2-0.2l-0.2-0.1l-0.3-0.1l-0.3-0.1l-0.3-0.1
		l-0.3,0l-0.3,0l-0.3,0l-0.3,0l-0.3,0.1l-0.3,0.1l-0.3,0.1l-0.2,0.1l-0.2,0.2l-0.2,0.2l-0.2,0.2L302.4,274.8z M302.5,416.3l-0.2,0.2
		l-0.1,0.2l-0.1,0.3l-0.1,0.3l-0.1,0.3l0,0.3l0,0.3l0,0.3l0,0.3l0.1,0.3l0.1,0.3l0.1,0.3l0.1,0.2l0.2,0.2l0.2,0.2l0.2,0.2l0.2,0.2
		l0.2,0.1l0.3,0.1l0.3,0.1l0.3,0.1l0.3,0l0.3,0l0.3,0l0.3,0l0.3-0.1l0.3-0.1l0.3-0.1l0.2-0.1l0.2-0.2l0.2-0.2l0.2-0.2l0.2-0.2
		l0.1-0.2l0.1-0.3l0.1-0.3l0.1-0.3l0-0.3l0-0.3l0-0.3l0-0.3l-0.1-0.3l-0.1-0.3l-0.1-0.3l-0.1-0.2l-0.2-0.2l-0.2-0.2l-0.2-0.2
		l-0.2-0.2l-0.2-0.1l-0.3-0.1l-0.3-0.1l-0.3-0.1l-0.3,0l-0.3,0l-0.3,0l-0.3,0l-0.3,0.1l-0.3,0.1l-0.3,0.1l-0.2,0.1l-0.2,0.2
		l-0.2,0.2L302.5,416.3z"/>
	<g class="st1">
		<path class="st2" d="M312.2,280.6l1.2-0.2c0,0.8,0.2,1.3,0.4,1.6c0.3,0.3,0.6,0.4,1.1,0.4c0.3,0,0.6-0.1,0.9-0.2s0.4-0.4,0.5-0.6
			c0.1-0.3,0.1-0.7,0.1-1.3v-7h1.3v6.9c0,0.8-0.1,1.5-0.3,2c-0.2,0.5-0.5,0.8-1,1.1c-0.4,0.2-1,0.4-1.6,0.4c-0.9,0-1.6-0.3-2-0.8
			C312.4,282.4,312.2,281.6,312.2,280.6z"/>
	</g>
	<g class="st1">
		<path class="st2" d="M312.9,425.2v-10.1h3.5c0.8,0,1.4,0,1.8,0.1c0.6,0.1,1.1,0.4,1.5,0.7c0.5,0.5,0.9,1,1.2,1.7s0.4,1.5,0.4,2.4
			c0,0.8-0.1,1.5-0.3,2c-0.2,0.6-0.4,1.1-0.7,1.5c-0.3,0.4-0.6,0.7-0.9,0.9c-0.3,0.2-0.7,0.4-1.2,0.5c-0.5,0.1-1,0.2-1.6,0.2H312.9z
			 M314.2,424h2.2c0.7,0,1.2-0.1,1.6-0.2c0.4-0.1,0.7-0.3,0.9-0.5c0.3-0.3,0.6-0.7,0.7-1.3c0.2-0.5,0.3-1.2,0.3-2
			c0-1.1-0.2-1.9-0.5-2.4c-0.3-0.6-0.8-1-1.3-1.1c-0.4-0.1-0.9-0.2-1.7-0.2h-2.1V424z"/>
	</g>
	<path class="st0" d="M382.3,422.3l-0.5,2l-0.7,2l-0.9,1.9l-1.1,1.8l-1.2,1.7l-1.4,1.5l-1.5,1.4l-1.7,1.2l-1.8,1.1l-1.9,0.9l-2,0.7
		l-2,0.5l-2.1,0.3l-2.1,0.1l-2.1-0.1l-2.1-0.3l-2-0.5l-2-0.7l-1.9-0.9l-1.8-1.1l-1.7-1.2l-1.5-1.4l-1.4-1.5l-1.2-1.7l-1.1-1.8
		l-0.9-1.9l-0.7-2l-0.5-2l-0.3-2.1l-0.1-2.1V21.3l0.1-2.1l0.3-2.1l0.5-2l0.7-2l0.9-1.9l1.1-1.8l1.2-1.7l1.4-1.5l1.5-1.4l1.7-1.2
		l1.8-1.1l1.9-0.9l2-0.7l2-0.5l2.1-0.3l2.1-0.1l2.1,0.1l2.1,0.3l2,0.5l2,0.7l1.9,0.9l1.8,1.1l1.7,1.2l1.5,1.4l1.4,1.5l1.2,1.7
		l1.1,1.8l0.9,1.9l0.7,2l0.5,2l0.3,2.1l0.1,2.1v396.9l-0.1,2.1L382.3,422.3z M361.6,18.4l-0.3,0l-0.3,0l-0.3,0.1l-0.3,0.1l-0.3,0.1
		l-0.2,0.1l-0.2,0.2l-0.2,0.2l-0.2,0.2l-0.2,0.2l-0.2,0.2l-0.1,0.2l-0.1,0.3l-0.1,0.3l-0.1,0.3l0,0.3l0,0.3l0,0.3l0.1,0.3l0.1,0.3
		l0.1,0.3l0.1,0.2l0.2,0.2l0.2,0.2l0.2,0.2l0.2,0.2l0.2,0.2l0.2,0.1l0.3,0.1l0.3,0.1l0.3,0.1l0.3,0l0.3,0l0.3,0l0.3-0.1l0.3-0.1
		l0.3-0.1l0.2-0.1l0.2-0.2l0.2-0.2l0.2-0.2l0.2-0.2l0.2-0.2l0.1-0.2l0.1-0.3l0.1-0.3l0.1-0.3l0-0.3l0-0.3l0-0.3l-0.1-0.3l-0.1-0.3
		l-0.1-0.3l-0.1-0.2l-0.2-0.2l-0.2-0.2l-0.2-0.2l-0.2-0.2l-0.2-0.2l-0.2-0.1l-0.3-0.1l-0.3-0.1l-0.3-0.1L361.6,18.4z M361.9,415.3
		l-0.3,0l-0.3,0l-0.3,0l-0.3,0.1l-0.3,0.1l-0.3,0.1l-0.2,0.1l-0.2,0.2l-0.2,0.2l-0.2,0.2l-0.2,0.2l-0.2,0.2l-0.1,0.2l-0.1,0.3
		l-0.1,0.3l-0.1,0.3l0,0.3l0,0.3l0,0.3l0.1,0.3l0.1,0.3l0.1,0.3l0.1,0.2l0.2,0.2l0.2,0.2l0.2,0.2l0.2,0.2l0.2,0.2l0.2,0.1l0.3,0.1
		l0.3,0.1l0.3,0.1l0.3,0l0.3,0l0.3,0l0.3-0.1l0.3-0.1l0.3-0.1l0.2-0.1l0.2-0.2l0.2-0.2l0.2-0.2l0.2-0.2l0.2-0.2l0.1-0.2l0.1-0.3
		l0.1-0.3l0.1-0.3l0-0.3l0-0.3l0-0.3l-0.1-0.3l-0.1-0.3l-0.1-0.3l-0.1-0.2l-0.2-0.2l-0.2-0.2l-0.2-0.2l-0.2-0.2l-0.2-0.2l-0.2-0.1
		l-0.3-0.1l-0.3-0.1L361.9,415.3z"/>
	<g class="st1">
		<path class="st2" d="M369.7,28.3V18.2h6.8v1.2H371v3.1h4.8v1.2H371v4.6H369.7z"/>
	</g>
	<g class="st1">
		<path class="st2" d="M368.5,425.2l3.9-10.1h1.4l4.2,10.1h-1.5l-1.2-3.1H371l-1.1,3.1H368.5z M371.4,421h3.4l-1.1-2.8
			c-0.3-0.9-0.6-1.6-0.7-2.1c-0.1,0.7-0.3,1.3-0.5,1.9L371.4,421z"/>
	</g>
	<path class="st0" d="M439,422.3l-0.5,2l-0.7,2l-0.9,1.9l-1.1,1.8l-1.2,1.7l-1.4,1.5l-1.5,1.4l-1.7,1.2l-1.8,1.1l-1.9,0.9l-2,0.7
		l-2,0.5l-2.1,0.3l-2.1,0.1l-2.1-0.1L414,439l-2-0.5l-2-0.7l-1.9-0.9l-1.8-1.1l-1.7-1.2l-1.5-1.4l-1.4-1.5l-1.2-1.7l-1.1-1.8
		l-0.9-1.9l-0.7-2l-0.5-2l-0.3-2.1l-0.1-2.1V21.3l0.1-2.1l0.3-2.1l0.5-2l0.7-2l0.9-1.9l1.1-1.8l1.2-1.7l1.4-1.5l1.5-1.4l1.7-1.2
		l1.8-1.1l1.9-0.9l2-0.7l2-0.5l2.1-0.3l2.1-0.1l2.1,0.1l2.1,0.3l2,0.5l2,0.7l1.9,0.9l1.8,1.1l1.7,1.2l1.5,1.4l1.4,1.5l1.2,1.7
		l1.1,1.8l0.9,1.9l0.7,2l0.5,2l0.3,2.1l0.1,2.1v396.9l-0.1,2.1L439,422.3z M416.9,18.7l-0.2,0.1l-0.2,0.2l-0.2,0.2l-0.2,0.2
		l-0.2,0.2l-0.2,0.2l-0.1,0.2l-0.1,0.3l-0.1,0.3l-0.1,0.3l0,0.3l0,0.3l0,0.3l0.1,0.3l0.1,0.3l0.1,0.3l0.1,0.2l0.2,0.2l0.2,0.2
		l0.2,0.2l0.2,0.2l0.2,0.2l0.2,0.1l0.3,0.1l0.3,0.1l0.3,0.1l0.3,0l0.3,0l0.3,0l0.3-0.1l0.3-0.1l0.3-0.1l0.2-0.1l0.2-0.2l0.2-0.2
		l0.2-0.2l0.2-0.2l0.2-0.2l0.1-0.2l0.1-0.3l0.1-0.3l0.1-0.3l0-0.3l0-0.3l0-0.3l-0.1-0.3l-0.1-0.3l-0.1-0.3l-0.1-0.2l-0.2-0.2
		l-0.2-0.2l-0.2-0.2l-0.2-0.2l-0.2-0.2l-0.2-0.1l-0.3-0.1l-0.3-0.1l-0.3-0.1l-0.3,0l-0.3,0l-0.3,0l-0.3,0.1l-0.3,0.1L416.9,18.7z
		 M417.1,415.5l-0.3,0.1l-0.2,0.1l-0.2,0.2l-0.2,0.2l-0.2,0.2l-0.2,0.2l-0.2,0.2l-0.1,0.2l-0.1,0.3l-0.1,0.3l-0.1,0.3l0,0.3l0,0.3
		l0,0.3l0.1,0.3l0.1,0.3l0.1,0.3l0.1,0.2l0.2,0.2l0.2,0.2l0.2,0.2l0.2,0.2l0.2,0.2l0.2,0.1l0.3,0.1l0.3,0.1l0.3,0.1l0.3,0l0.3,0
		l0.3,0l0.3-0.1l0.3-0.1l0.3-0.1l0.2-0.1l0.2-0.2l0.2-0.2l0.2-0.2l0.2-0.2l0.2-0.2l0.1-0.2l0.1-0.3l0.1-0.3l0.1-0.3l0-0.3l0-0.3
		l0-0.3l-0.1-0.3l-0.1-0.3l-0.1-0.3l-0.1-0.2l-0.2-0.2l-0.2-0.2L420,416l-0.2-0.2l-0.2-0.2l-0.2-0.1l-0.3-0.1l-0.3-0.1l-0.3-0.1
		l-0.3,0l-0.3,0l-0.3,0l-0.3,0.1L417.1,415.5z"/>
	<g class="st1">
		<path class="st2" d="M425.6,25.5l1.2-0.2c0,0.8,0.2,1.3,0.4,1.6c0.3,0.3,0.6,0.4,1.1,0.4c0.3,0,0.6-0.1,0.9-0.2
			c0.2-0.2,0.4-0.4,0.5-0.6c0.1-0.3,0.1-0.7,0.1-1.3v-7h1.3v6.9c0,0.8-0.1,1.5-0.3,2c-0.2,0.5-0.5,0.8-1,1.1s-1,0.4-1.6,0.4
			c-0.9,0-1.6-0.3-2-0.8S425.6,26.5,425.6,25.5z"/>
	</g>
	<g class="st1">
		<path class="st2" d="M425.2,425.2l3.9-10.1h1.4l4.2,10.1h-1.5l-1.2-3.1h-4.2l-1.1,3.1H425.2z M428.1,421h3.4l-1.1-2.8
			c-0.3-0.9-0.6-1.6-0.7-2.1c-0.1,0.7-0.3,1.3-0.5,1.9L428.1,421z"/>
	</g>
</g>
</svg>
